HIERARCHY
ROOT Hips
{
	OFFSET 0.000000 0.000000 0.000000
	CHANNELS 6 Xposition Yposition Zposition Yrotation Xrotation Zrotation
	JOINT Chest
	{
		OFFSET 0.000000 -0.009281 11.569106
		CHANNELS 3 Yrotation Xrotation Zrotation
		JOINT Chest2
		{
			OFFSET -0.000000 0.016865 9.269641
			CHANNELS 3 Yrotation Xrotation Zrotation
			JOINT Chest3
			{
				OFFSET -0.000000 0.000001 8.374491
				CHANNELS 3 Yrotation Xrotation Zrotation
				JOINT Chest4
				{
					OFFSET -0.000000 0.000001 8.374493
					CHANNELS 3 Yrotation Xrotation Zrotation
					JOINT Neck
					{
						OFFSET -0.000000 0.000002 12.152554
						CHANNELS 3 Yrotation Xrotation Zrotation
						JOINT Head
						{
							OFFSET -0.000000 0.040101 7.802319
							CHANNELS 3 Yrotation Xrotation Zrotation
							End Site
							{
								OFFSET -0.000000 0.020947 14.853096
							}
						}
					}
					JOINT RightCollar
					{
						OFFSET 2.894404 0.000001 6.791374
						CHANNELS 3 Yrotation Xrotation Zrotation
						JOINT RightShoulder
						{
							OFFSET 13.574684 0.000001 0.000000
							CHANNELS 3 Yrotation Xrotation Zrotation
							JOINT RightElbow
							{
								OFFSET 23.923903 0.000002 0.000000
								CHANNELS 3 Yrotation Xrotation Zrotation
								JOINT RightWrist
								{
									OFFSET 19.846718 0.012767 0.000000
									CHANNELS 3 Yrotation Xrotation Zrotation
									End Site
									{
										OFFSET 14.973145 0.000001 0.000000
									}
								}
							}
						}
					}
					JOINT LeftCollar
					{
						OFFSET -2.894404 0.000001 6.791374
						CHANNELS 3 Yrotation Xrotation Zrotation
						JOINT LeftShoulder
						{
							OFFSET -13.574684 -0.000001 0.000000
							CHANNELS 3 Yrotation Xrotation Zrotation
							JOINT LeftElbow
							{
								OFFSET -23.923903 -0.000002 0.000000
								CHANNELS 3 Yrotation Xrotation Zrotation
								JOINT LeftWrist
								{
									OFFSET -19.846718 0.012763 0.000000
									CHANNELS 3 Yrotation Xrotation Zrotation
									End Site
									{
										OFFSET -14.973145 -0.000001 0.000000
									}
								}
							}
						}
					}
				}
			}
		}
	}
	JOINT RightHip
	{
		OFFSET 9.469263 0.004643 0.045487
		CHANNELS 3 Yrotation Xrotation Zrotation
		JOINT RightKnee
		{
			OFFSET 0.000000 0.002661 -40.478676
			CHANNELS 3 Yrotation Xrotation Zrotation
			JOINT RightAnkle
			{
				OFFSET 0.000000 0.049106 -35.224068
				CHANNELS 3 Yrotation Xrotation Zrotation
				JOINT RightToe
				{
					OFFSET -0.000001 12.539529 -6.151390
					CHANNELS 3 Yrotation Xrotation Zrotation
					End Site
					{
						OFFSET -0.000001 5.044994 -1.291870
					}
				}
			}
		}
	}
	JOINT LeftHip
	{
		OFFSET -9.469263 0.004641 0.045487
		CHANNELS 3 Yrotation Xrotation Zrotation
		JOINT LeftKnee
		{
			OFFSET 0.000000 0.002661 -40.478676
			CHANNELS 3 Yrotation Xrotation Zrotation
			JOINT LeftAnkle
			{
				OFFSET 0.000000 0.049106 -35.224068
				CHANNELS 3 Yrotation Xrotation Zrotation
				JOINT LeftToe
				{
					OFFSET -0.000001 12.539529 -6.151390
					CHANNELS 3 Yrotation Xrotation Zrotation
					End Site
					{
						OFFSET -0.000001 5.044994 -1.291870
					}
				}
			}
		}
	}
}
MOTION
Frames: 16
Frame Time: 0.016667
11.149939 -4.643205 79.429039 3.610500 -7.286070 -86.815707 0.367600 -1.950836 -0.176948 0.117191 -0.819484 -0.070310 0.117191 -0.819484 -0.070309 0.087797 -0.614626 -0.052574 9.664963 -16.161469 -8.824661 14.775111 6.453119 -12.910416 10.529680 0.627251 -2.721749 54.374538 5.494582 18.543977 -8.131570 -27.742237 -3.232119 -5.319836 -11.316126 -6.563148 -7.483978 0.748472 -2.703733 -77.985379 6.918393 -3.248734 2.089867 14.181527 1.042681 12.883688 10.483696 -20.188706 14.168970 10.313526 1.165558 11.542369 -17.198628 -18.102735 -8.846428 14.804606 -3.090271 1.276157 0.616865 0.039696 -1.937542 35.411290 -12.447402 -1.458763 -26.226005 6.852384 7.982892 -10.922294 -1.651300 -2.763675 4.047391 -0.101347 
11.836483 -4.795720 79.421516 3.707435 -7.396746 -86.321099 0.390404 -1.891710 0.113563 0.144443 -0.806589 0.055822 0.144444 -0.806588 0.055822 0.108405 -0.604928 0.042057 9.814473 -16.058523 -9.055952 14.966012 6.656272 -13.280855 10.640591 0.650821 -2.620971 54.781102 4.525353 19.575968 -8.355621 -28.177684 -3.180195 -5.453111 -11.489436 -6.518404 -7.497692 1.022385 -2.518845 -78.094477 7.559565 -2.284218 2.279003 13.674132 1.043959 12.925336 10.271750 -20.080953 14.357222 9.835312 0.904832 11.469643 -16.925916 -17.762020 -8.979145 14.967019 -3.352698 1.071943 0.647468 0.043843 -2.110462 35.748595 -11.211357 -2.311201 -23.688780 7.831637 7.609511 -12.413836 -2.051013 -0.223874 2.484268 0.016644 
12.575996 -4.936994 79.417427 3.734738 -7.526010 -85.906575 0.429011 -1.860223 0.442004 0.172596 -0.801193 0.199274 0.172596 -0.801193 0.199274 0.129706 -0.600839 0.149680 9.942846 -15.962717 -9.287092 15.117529 6.845820 -13.659103 10.788731 0.540539 -2.497528 55.144786 3.711747 20.660093 -8.520470 -28.750670 -3.114595 -5.618283 -11.622791 -6.418008 -7.468517 1.215359 -2.305729 -78.239516 8.350386 -1.384653 2.400651 13.255893 0.949532 13.011932 10.060216 -20.140339 14.562083 9.236744 0.750812 11.399659 -16.629736 -17.499689 -8.956541 15.157962 -3.509744 0.821643 0.672185 0.032454 -2.037344 35.803261 -10.190386 -3.210731 -21.086385 9.458228 6.900550 -13.947468 -2.294704 2.014686 1.461478 0.082536 
13.363239 -5.050639 79.419403 3.715764 -7.620504 -85.570919 0.458647 -1.838648 0.786889 0.201822 -0.804203 0.353753 0.201821 -0.804204 0.353754 0.151830 -0.603037 0.265576 10.040791 -15.871051 -9.509377 15.215457 7.026620 -14.032324 10.918332 0.330144 -2.381460 55.477153 2.974792 21.829418 -8.620952 -29.488092 -3.057731 -5.829456 -11.720019 -6.257541 -7.444100 1.328750 -2.118806 -78.375287 9.254765 -0.544188 2.429768 13.099522 0.796587 13.132012 9.899713 -20.328340 14.729040 8.544690 0.678763 11.324634 -16.326112 -17.303226 -8.786158 15.351248 -3.558890 0.544959 0.713967 0.020023 -1.814753 35.588328 -9.377239 -4.080326 -18.466016 11.578239 6.091259 -15.520013 -2.426804 3.823466 0.912174 0.119590 
14.193171 -5.128402 79.434525 3.668586 -7.655511 -85.280929 0.452523 -1.821939 1.139937 0.222385 -0.818875 0.517020 0.222384 -0.818876 0.517021 0.167478 -0.613969 0.388057 10.120261 -15.779013 -9.728767 15.279668 7.207393 -14.407143 11.068825 0.094714 -2.312475 55.813888 2.159125 23.094857 -8.720780 -30.175987 -3.045465 -6.034064 -11.816536 -6.097055 -7.386962 1.465764 -1.951624 -78.510818 10.103371 0.325734 2.404081 13.208281 0.601407 13.252333 9.939878 -20.526207 14.805905 7.788635 0.619400 11.277275 -16.034535 -17.122130 -8.510574 15.538638 -3.556374 0.263641 0.782073 0.019335 -1.559064 35.082812 -8.630209 -4.885909 -15.757187 13.857685 5.440847 -16.886589 -2.389780 5.141100 0.516172 0.130165 
15.070531 -5.171883 79.465302 3.603944 -7.677222 -85.000475 0.454419 -1.812022 1.458354 0.244824 -0.836374 0.672425 0.244824 -0.836374 0.672425 0.184534 -0.627013 0.504645 10.164136 -15.703850 -9.931224 15.284063 7.355124 -14.764521 11.251955 0.038619 -2.238258 56.131154 1.146578 24.239078 -8.853029 -30.634010 -3.025049 -6.162968 -11.923714 -6.037133 -7.309332 1.652567 -1.759605 -78.652251 10.844724 1.251647 2.374006 13.465532 0.380253 13.340741 10.251415 -20.657339 14.843999 6.959141 0.456185 11.211200 -15.727460 -16.903178 -8.099844 15.709415 -3.451669 -0.029907 0.871352 0.017827 -1.423184 34.318941 -7.784547 -5.357662 -12.972731 15.762866 4.660854 -17.839358 -1.969072 6.182703 0.011323 0.125607 
16.013168 -5.194210 79.514481 3.430547 -7.743920 -84.785174 0.532671 -1.858917 1.804302 0.275174 -0.845051 0.818698 0.275174 -0.845051 0.818698 0.207510 -0.633421 0.614394 10.164985 -15.673168 -10.123933 15.213295 7.418660 -15.121699 11.475885 0.106559 -2.056448 56.392234 0.129914 25.186862 -8.931204 -30.963242 -2.973694 -6.204919 -11.975051 -6.052397 -7.240648 1.871142 -1.528841 -78.783001 11.523621 2.238421 2.347483 13.824473 0.195524 13.398371 10.736772 -20.739878 14.920661 5.941682 0.167043 11.082011 -15.382378 -16.594197 -7.545368 15.761437 -3.185755 -0.318798 1.045097 0.025358 -1.312476 33.243712 -6.633406 -5.219396 -10.340735 16.887800 3.502385 -18.471594 -1.242501 6.879340 -0.460596 0.150253 
17.015972 -5.178186 79.583900 3.219137 -7.777530 -84.602077 0.602696 -1.894470 2.136906 0.319177 -0.848323 0.958133 0.319177 -0.848323 0.958134 0.240709 -0.635745 0.719031 10.121703 -15.677014 -10.310670 15.063892 7.416161 -15.485509 11.661014 0.106465 -1.865152 56.633866 -0.835698 26.136612 -8.909738 -31.267226 -2.860237 -6.223726 -11.915203 -6.075615 -7.182960 2.190832 -1.218664 -78.943620 12.192112 3.328523 2.355289 14.198563 0.062003 13.444093 11.238812 -20.836587 14.966763 4.779620 -0.330816 10.851271 -14.957324 -16.044816 -6.890399 15.723037 -2.876272 -0.589935 1.229961 0.039265 -1.420462 31.965760 -5.269872 -4.639734 -8.052887 17.183491 2.447056 -18.559270 -0.559290 6.962623 -1.017111 0.143772 
18.057421 -5.148491 79.671280 3.045787 -7.768288 -84.435830 0.662092 -1.867048 2.433850 0.365608 -0.855042 1.095481 0.365608 -0.855041 1.095483 0.275735 -0.640629 0.822109 10.052235 -15.684186 -10.490774 14.868422 7.405587 -15.846790 11.787118 -0.048046 -1.697423 56.855311 -1.717648 27.165044 -8.823789 -31.588973 -2.600006 -6.254428 -11.812431 -6.058887 -7.145595 2.537000 -0.842895 -79.089329 12.864809 4.401873 2.373797 14.568816 0.010254 13.490623 11.677429 -20.961164 14.982300 3.570637 -0.954806 10.561752 -14.435403 -15.212641 -6.272681 15.534036 -2.668858 -0.791865 1.448386 0.100083 -1.805196 30.552853 -4.191785 -3.665396 -6.058539 16.806474 1.383357 -18.100203 0.158351 6.524381 -1.714551 0.134844 
19.142286 -5.118890 79.770721 2.832022 -7.699349 -84.321882 0.719971 -1.879647 2.746943 0.399501 -0.878074 1.233550 0.399501 -0.878075 1.233553 0.301394 -0.657752 0.925719 9.965151 -15.666859 -10.660535 14.642930 7.438369 -16.194594 11.892794 -0.197734 -1.565230 57.047547 -2.598324 28.171723 -8.779639 -31.913127 -2.124557 -6.288105 -11.727180 -6.017503 -7.091084 2.822155 -0.383855 -79.207757 13.547847 5.298946 2.393787 14.859616 0.084103 13.479891 12.018590 -21.093342 14.980975 2.238310 -1.483902 10.233742 -13.797317 -14.319833 -5.703394 15.193828 -2.539515 -0.910988 1.701378 0.203354 -2.220021 28.981869 -3.763842 -2.752319 -4.351645 16.329295 0.373226 -17.278753 1.006037 5.788828 -2.328028 0.140732 
20.258474 -5.101589 79.875793 2.560053 -7.572601 -84.245677 0.778827 -1.943515 3.067623 0.417360 -0.918373 1.370924 0.417361 -0.918372 1.370925 0.315076 -0.687848 1.028799 9.861600 -15.626848 -10.818358 14.389964 7.511090 -16.525837 11.969097 -0.344402 -1.494080 57.281778 -3.462349 29.137573 -8.851891 -32.248762 -1.350063 -6.320201 -11.648870 -6.074229 -6.950652 2.967760 0.132396 -79.419917 14.150713 5.973618 2.491500 15.173656 0.306302 13.361435 12.265879 -21.219554 14.970747 0.802625 -1.920728 9.861448 -13.095989 -13.518658 -5.108028 14.751318 -2.330546 -0.989862 1.972621 0.291438 -2.475372 27.388087 -3.871394 -2.187476 -3.089540 16.043245 -0.421965 -16.315700 1.823586 4.900832 -2.628181 0.160991 
21.391909 -5.090749 79.983818 2.290265 -7.370821 -84.217209 0.805184 -2.017891 3.396730 0.421010 -0.965772 1.508374 0.421010 -0.965773 1.508375 0.318136 -0.723295 1.131921 9.739984 -15.571366 -10.962690 14.107317 7.610235 -16.838612 12.036700 -0.492089 -1.444422 57.533211 -4.156329 30.037160 -8.998108 -32.752413 -0.208060 -6.230077 -11.586604 -6.265052 -6.782171 3.063561 0.595402 -79.718198 14.636499 6.568001 2.731248 15.599339 0.618489 13.210290 12.378582 -21.248338 14.908365 -0.624566 -2.342090 9.454196 -12.431542 -12.778003 -4.475185 14.229164 -2.021931 -1.042894 2.268328 0.356479 -2.603424 25.864665 -4.083313 -1.899343 -2.317893 15.897550 -0.951623 -15.288513 2.317253 3.943205 -2.615206 0.178532 
22.530630 -5.085272 80.092369 2.061112 -7.101374 -84.245944 0.815754 -2.065154 3.697981 0.421867 -1.004347 1.630433 0.421867 -1.004346 1.630432 0.319073 -0.752141 1.223487 9.564474 -15.529548 -11.065856 13.740064 7.679640 -17.095480 12.072224 -0.692942 -1.321839 57.741948 -4.594233 30.863866 -9.130303 -33.403651 1.327803 -5.995940 -11.547198 -6.531793 -6.658280 3.191735 1.064103 -79.984753 14.996531 7.247838 3.056887 16.095418 0.960425 13.069135 12.319559 -21.096250 14.769594 -1.978023 -2.794173 9.042316 -11.870112 -12.018219 -3.829203 13.635471 -1.672488 -1.071588 2.601410 0.439818 -2.675132 24.427004 -4.217638 -1.775191 -1.945033 15.830637 -1.232316 -14.330164 2.510484 2.969582 -2.294173 0.172636 
23.676289 -5.071131 80.199615 1.857693 -6.749280 -84.304779 0.798002 -2.116005 3.979529 0.412952 -1.026112 1.737401 0.412951 -1.026112 1.737402 0.312625 -0.768418 1.303713 9.341878 -15.498194 -11.137681 13.297189 7.725575 -17.312047 12.098811 -0.833619 -1.223360 57.878442 -4.941034 31.574458 -9.210788 -33.986950 3.211733 -5.786514 -11.447722 -6.786389 -6.533733 3.308258 1.506768 -80.223884 15.234505 7.970342 3.465651 16.552135 1.362256 12.920626 12.158503 -20.794907 14.511235 -3.257235 -3.323736 8.668655 -11.438907 -11.196669 -3.124631 13.036558 -1.268732 -3.106015 3.677611 0.328581 -2.694136 23.084554 -4.333767 -2.171090 -1.980315 16.088820 -1.393377 -13.405576 2.881407 2.373992 -1.605813 0.119780 
24.834682 -5.027712 80.313232 1.669649 -6.245680 -84.275607 0.698570 -2.202412 4.168683 0.371647 -1.040230 1.817535 0.371648 -1.040231 1.817537 0.281824 -0.779076 1.363748 9.108961 -15.453925 -11.177251 12.846052 7.793395 -17.472485 12.165967 -0.780229 -1.215193 57.947776 -5.307860 32.129087 -9.183041 -34.352737 5.346629 -5.819092 -11.278680 -6.921531 -6.393202 3.333736 1.852101 -80.417165 15.475242 8.602215 3.953266 16.884590 1.848485 12.723247 11.932963 -20.407219 14.067734 -4.483311 -4.059312 8.303571 -11.116554 -10.348109 -2.300961 12.466448 -0.748694 -4.906326 4.790019 0.121573 -2.900413 21.633168 -4.394906 -2.977729 -1.730496 16.896872 -0.864212 -12.696182 3.268859 1.844960 -0.852282 0.057941 
25.983713 -4.954289 80.445633 1.500386 -5.713845 -84.117632 0.628195 -2.238382 4.227923 0.312941 -1.065253 1.865353 0.312941 -1.065253 1.865352 0.237954 -0.797993 1.399522 8.874641 -15.401575 -11.192015 12.400710 7.875055 -17.587491 12.226875 -0.634695 -1.253526 58.034861 -5.623036 32.547832 -9.078857 -34.592442 7.677456 -6.139542 -11.097562 -6.875982 -6.341332 3.374469 2.085886 -80.467893 15.815279 9.198553 4.531296 17.087685 2.454066 12.520528 11.583728 -19.977738 13.532625 -5.605375 -5.031505 7.989982 -10.910534 -9.478617 -1.404275 11.752273 -0.191862 -6.504712 6.101434 -0.145704 -3.228462 19.958626 -3.902324 -3.415922 -0.708915 17.184476 -0.642123 -12.682711 3.270888 1.592844 -0.205273 0.102420 
